<svg xmlns="http://www.w3.org/2000/svg" viewBox="0 0 800 800" width="800" height="800">
  <defs>
    <!-- Background atmosphere from M2 -->
    <radialGradient id="bg-grad" cx="50%" cy="50%" r="55%">
      <stop offset="0%" stop-color="#1a0a2e"/>
      <stop offset="60%" stop-color="#0d0d1a"/>
      <stop offset="100%" stop-color="#050510"/>
    </radialGradient>

    <!-- Centre glow from M2 -->
    <radialGradient id="centre-glow" cx="50%" cy="50%" r="50%">
      <stop offset="0%" stop-color="#ffd700" stop-opacity="0.9"/>
      <stop offset="50%" stop-color="#e6a800" stop-opacity="0.4"/>
      <stop offset="100%" stop-color="#b8860b" stop-opacity="0"/>
    </radialGradient>

    <!-- Petal gradient from M2 -->
    <linearGradient id="petal-grad" x1="0%" y1="0%" x2="0%" y2="100%">
      <stop offset="0%" stop-color="#7b2d8e"/>
      <stop offset="50%" stop-color="#c2185b"/>
      <stop offset="100%" stop-color="#e91e63"/>
    </linearGradient>

    <!-- Secondary petal gradient -->
    <linearGradient id="petal-grad-2" x1="0%" y1="0%" x2="0%" y2="100%">
      <stop offset="0%" stop-color="#4a148c"/>
      <stop offset="100%" stop-color="#7b1fa2"/>
    </linearGradient>

    <!-- Triangle gradient from M2 -->
    <linearGradient id="tri-grad" x1="0%" y1="0%" x2="0%" y2="100%">
      <stop offset="0%" stop-color="#ffd700"/>
      <stop offset="100%" stop-color="#ff8f00"/>
    </linearGradient>

    <!-- Soft glow filter from M2 -->
    <filter id="soft-glow" x="-20%" y="-20%" width="140%" height="140%">
      <feGaussianBlur in="SourceGraphic" stdDeviation="3" result="blur"/>
      <feMerge>
        <feMergeNode in="blur"/>
        <feMergeNode in="SourceGraphic"/>
      </feMerge>
    </filter>

    <!-- Outer glow filter from M2 -->
    <filter id="outer-glow" x="-30%" y="-30%" width="160%" height="160%">
      <feGaussianBlur in="SourceGraphic" stdDeviation="4" result="blur"/>
      <feMerge>
        <feMergeNode in="blur"/>
        <feMergeNode in="SourceGraphic"/>
      </feMerge>
    </filter>
  </defs>

  <!-- Atmospheric background (from M2) -->
  <rect width="800" height="800" fill="url(#bg-grad)"/>

  <!-- === DECORATIVE BORDER === -->
  <!-- Triple circle border (structure from M1, glow from M2) -->
  <circle cx="400" cy="400" r="390" fill="none" stroke="#ffd700" stroke-width="2" opacity="0.6" filter="url(#outer-glow)"/>
  <circle cx="400" cy="400" r="380" fill="none" stroke="#7b1fa2" stroke-width="3"/>
  <circle cx="400" cy="400" r="375" fill="none" stroke="#ffd700" stroke-width="1" opacity="0.4"/>

  <!-- 32 border ticks from M1, using M2's gold colour -->
  <g id="border-tick">
    <line x1="400" y1="12" x2="400" y2="28" stroke="#ffd700" stroke-width="1.5" opacity="0.7"/>
  </g>
  <use href="#border-tick" transform="rotate(0 400 400)"/>
  <use href="#border-tick" transform="rotate(11.25 400 400)"/>
  <use href="#border-tick" transform="rotate(22.5 400 400)"/>
  <use href="#border-tick" transform="rotate(33.75 400 400)"/>
  <use href="#border-tick" transform="rotate(45 400 400)"/>
  <use href="#border-tick" transform="rotate(56.25 400 400)"/>
  <use href="#border-tick" transform="rotate(67.5 400 400)"/>
  <use href="#border-tick" transform="rotate(78.75 400 400)"/>
  <use href="#border-tick" transform="rotate(90 400 400)"/>
  <use href="#border-tick" transform="rotate(101.25 400 400)"/>
  <use href="#border-tick" transform="rotate(112.5 400 400)"/>
  <use href="#border-tick" transform="rotate(123.75 400 400)"/>
  <use href="#border-tick" transform="rotate(135 400 400)"/>
  <use href="#border-tick" transform="rotate(146.25 400 400)"/>
  <use href="#border-tick" transform="rotate(157.5 400 400)"/>
  <use href="#border-tick" transform="rotate(168.75 400 400)"/>
  <use href="#border-tick" transform="rotate(180 400 400)"/>
  <use href="#border-tick" transform="rotate(191.25 400 400)"/>
  <use href="#border-tick" transform="rotate(202.5 400 400)"/>
  <use href="#border-tick" transform="rotate(213.75 400 400)"/>
  <use href="#border-tick" transform="rotate(225 400 400)"/>
  <use href="#border-tick" transform="rotate(236.25 400 400)"/>
  <use href="#border-tick" transform="rotate(247.5 400 400)"/>
  <use href="#border-tick" transform="rotate(258.75 400 400)"/>
  <use href="#border-tick" transform="rotate(270 400 400)"/>
  <use href="#border-tick" transform="rotate(281.25 400 400)"/>
  <use href="#border-tick" transform="rotate(292.5 400 400)"/>
  <use href="#border-tick" transform="rotate(303.75 400 400)"/>
  <use href="#border-tick" transform="rotate(315 400 400)"/>
  <use href="#border-tick" transform="rotate(326.25 400 400)"/>
  <use href="#border-tick" transform="rotate(337.5 400 400)"/>
  <use href="#border-tick" transform="rotate(348.75 400 400)"/>

  <!-- 8 diamond ornaments on border (from M2) -->
  <g id="border-diamond">
    <polygon points="400,5 396,18 400,31 404,18" fill="#ffd700" opacity="0.85"/>
  </g>
  <use href="#border-diamond" transform="rotate(0 400 400)"/>
  <use href="#border-diamond" transform="rotate(45 400 400)"/>
  <use href="#border-diamond" transform="rotate(90 400 400)"/>
  <use href="#border-diamond" transform="rotate(135 400 400)"/>
  <use href="#border-diamond" transform="rotate(180 400 400)"/>
  <use href="#border-diamond" transform="rotate(225 400 400)"/>
  <use href="#border-diamond" transform="rotate(270 400 400)"/>
  <use href="#border-diamond" transform="rotate(315 400 400)"/>

  <!-- === OUTER RING: Triangles/pointed elements === -->
  <!-- Primary triangles with gradient (M2 shape + gradient, M1 spacing) -->
  <g id="outer-point">
    <polygon points="400,55 382,125 400,108 418,125" fill="url(#tri-grad)" opacity="0.9"/>
    <polygon points="400,65 390,118 400,105 410,118" fill="#ffd700" opacity="0.3"/>
  </g>
  <use href="#outer-point" transform="rotate(0 400 400)"/>
  <use href="#outer-point" transform="rotate(45 400 400)"/>
  <use href="#outer-point" transform="rotate(90 400 400)"/>
  <use href="#outer-point" transform="rotate(135 400 400)"/>
  <use href="#outer-point" transform="rotate(180 400 400)"/>
  <use href="#outer-point" transform="rotate(225 400 400)"/>
  <use href="#outer-point" transform="rotate(270 400 400)"/>
  <use href="#outer-point" transform="rotate(315 400 400)"/>

  <!-- Secondary smaller triangles from M1, offset 22.5 degrees -->
  <g id="outer-tri-sm">
    <polygon points="400,80 392,115 400,105 408,115" fill="#7b1fa2" opacity="0.7"/>
  </g>
  <use href="#outer-tri-sm" transform="rotate(22.5 400 400)"/>
  <use href="#outer-tri-sm" transform="rotate(67.5 400 400)"/>
  <use href="#outer-tri-sm" transform="rotate(112.5 400 400)"/>
  <use href="#outer-tri-sm" transform="rotate(157.5 400 400)"/>
  <use href="#outer-tri-sm" transform="rotate(202.5 400 400)"/>
  <use href="#outer-tri-sm" transform="rotate(247.5 400 400)"/>
  <use href="#outer-tri-sm" transform="rotate(292.5 400 400)"/>
  <use href="#outer-tri-sm" transform="rotate(337.5 400 400)"/>

  <!-- Outer ring guide circle (from M1, tinted) -->
  <circle cx="400" cy="400" r="280" fill="none" stroke="#7b1fa2" stroke-width="1.5" opacity="0.3"/>

  <!-- === MIDDLE RING: Petals/leaf shapes === -->
  <!-- Primary petals: M2's bezier curves at M1's radius positioning -->
  <g id="petal-main">
    <path d="M400,150 Q430,220 400,290 Q370,220 400,150 Z" fill="url(#petal-grad)" opacity="0.85"/>
    <path d="M400,165 Q422,220 400,278 Q378,220 400,165 Z" fill="#e91e63" opacity="0.25"/>
  </g>
  <use href="#petal-main" transform="rotate(0 400 400)"/>
  <use href="#petal-main" transform="rotate(45 400 400)"/>
  <use href="#petal-main" transform="rotate(90 400 400)"/>
  <use href="#petal-main" transform="rotate(135 400 400)"/>
  <use href="#petal-main" transform="rotate(180 400 400)"/>
  <use href="#petal-main" transform="rotate(225 400 400)"/>
  <use href="#petal-main" transform="rotate(270 400 400)"/>
  <use href="#petal-main" transform="rotate(315 400 400)"/>

  <!-- Secondary petals from M1's dual-layer approach, offset 22.5 degrees -->
  <g id="petal-sm">
    <path d="M400,185 Q418,230 400,275 Q382,230 400,185 Z" fill="url(#petal-grad-2)" opacity="0.55"/>
  </g>
  <use href="#petal-sm" transform="rotate(22.5 400 400)"/>
  <use href="#petal-sm" transform="rotate(67.5 400 400)"/>
  <use href="#petal-sm" transform="rotate(112.5 400 400)"/>
  <use href="#petal-sm" transform="rotate(157.5 400 400)"/>
  <use href="#petal-sm" transform="rotate(202.5 400 400)"/>
  <use href="#petal-sm" transform="rotate(247.5 400 400)"/>
  <use href="#petal-sm" transform="rotate(292.5 400 400)"/>
  <use href="#petal-sm" transform="rotate(337.5 400 400)"/>

  <!-- Middle ring separator (from M1) -->
  <circle cx="400" cy="400" r="140" fill="none" stroke="#4a148c" stroke-width="1" opacity="0.3"/>

  <!-- === INNER RING: Circles/dots === -->
  <!-- Gem-style dots from M2 at M1's multi-dot positions -->
  <g id="inner-gem">
    <circle cx="400" cy="280" r="14" fill="#ffd700" opacity="0.8" filter="url(#soft-glow)"/>
    <circle cx="400" cy="280" r="9" fill="#ffecb3" opacity="0.6"/>
    <circle cx="400" cy="280" r="4" fill="#ffffff" opacity="0.9"/>
  </g>
  <use href="#inner-gem" transform="rotate(0 400 400)"/>
  <use href="#inner-gem" transform="rotate(45 400 400)"/>
  <use href="#inner-gem" transform="rotate(90 400 400)"/>
  <use href="#inner-gem" transform="rotate(135 400 400)"/>
  <use href="#inner-gem" transform="rotate(180 400 400)"/>
  <use href="#inner-gem" transform="rotate(225 400 400)"/>
  <use href="#inner-gem" transform="rotate(270 400 400)"/>
  <use href="#inner-gem" transform="rotate(315 400 400)"/>

  <!-- Secondary dot line from M1, using M2's rose colour -->
  <g id="inner-dot-sm">
    <circle cx="400" cy="300" r="6" fill="#c2185b" opacity="0.5"/>
    <circle cx="400" cy="318" r="3.5" fill="#7b1fa2" opacity="0.5"/>
  </g>
  <use href="#inner-dot-sm" transform="rotate(0 400 400)"/>
  <use href="#inner-dot-sm" transform="rotate(45 400 400)"/>
  <use href="#inner-dot-sm" transform="rotate(90 400 400)"/>
  <use href="#inner-dot-sm" transform="rotate(135 400 400)"/>
  <use href="#inner-dot-sm" transform="rotate(180 400 400)"/>
  <use href="#inner-dot-sm" transform="rotate(225 400 400)"/>
  <use href="#inner-dot-sm" transform="rotate(270 400 400)"/>
  <use href="#inner-dot-sm" transform="rotate(315 400 400)"/>

  <!-- Accent dots between gems (from M2) -->
  <g id="accent-dot">
    <circle cx="400" cy="295" r="4" fill="#c2185b" opacity="0.5"/>
  </g>
  <use href="#accent-dot" transform="rotate(22.5 400 400)"/>
  <use href="#accent-dot" transform="rotate(67.5 400 400)"/>
  <use href="#accent-dot" transform="rotate(112.5 400 400)"/>
  <use href="#accent-dot" transform="rotate(157.5 400 400)"/>
  <use href="#accent-dot" transform="rotate(202.5 400 400)"/>
  <use href="#accent-dot" transform="rotate(247.5 400 400)"/>
  <use href="#accent-dot" transform="rotate(292.5 400 400)"/>
  <use href="#accent-dot" transform="rotate(337.5 400 400)"/>

  <!-- Inner ring guide -->
  <circle cx="400" cy="400" r="100" fill="none" stroke="#4a148c" stroke-width="0.8" opacity="0.25"/>

  <!-- === CENTRE === -->
  <!-- Radiant centre glow (from M2) -->
  <circle cx="400" cy="400" r="70" fill="url(#centre-glow)" opacity="0.4"/>

  <!-- Centre ornament: hybrid of both approaches -->
  <circle cx="400" cy="400" r="45" fill="#4a148c" opacity="0.8"/>
  <circle cx="400" cy="400" r="35" fill="#7b1fa2" opacity="0.7"/>
  <circle cx="400" cy="400" r="22" fill="#c2185b" opacity="0.8"/>
  <circle cx="400" cy="400" r="12" fill="#ffd700" opacity="0.9"/>
  <circle cx="400" cy="400" r="5" fill="#ffffff" opacity="0.95"/>

  <!-- Centre dot ring from M1 -->
  <g id="centre-dot">
    <circle cx="400" cy="340" r="5" fill="#ffd700" opacity="0.7"/>
  </g>
  <use href="#centre-dot" transform="rotate(0 400 400)"/>
  <use href="#centre-dot" transform="rotate(45 400 400)"/>
  <use href="#centre-dot" transform="rotate(90 400 400)"/>
  <use href="#centre-dot" transform="rotate(135 400 400)"/>
  <use href="#centre-dot" transform="rotate(180 400 400)"/>
  <use href="#centre-dot" transform="rotate(225 400 400)"/>
  <use href="#centre-dot" transform="rotate(270 400 400)"/>
  <use href="#centre-dot" transform="rotate(315 400 400)"/>

  <!-- Centre starburst from M2 -->
  <g id="starburst">
    <line x1="400" y1="355" x2="400" y2="338" stroke="#ffd700" stroke-width="0.8" opacity="0.4"/>
  </g>
  <use href="#starburst" transform="rotate(0 400 400)"/>
  <use href="#starburst" transform="rotate(22.5 400 400)"/>
  <use href="#starburst" transform="rotate(45 400 400)"/>
  <use href="#starburst" transform="rotate(67.5 400 400)"/>
  <use href="#starburst" transform="rotate(90 400 400)"/>
  <use href="#starburst" transform="rotate(112.5 400 400)"/>
  <use href="#starburst" transform="rotate(135 400 400)"/>
  <use href="#starburst" transform="rotate(157.5 400 400)"/>
  <use href="#starburst" transform="rotate(180 400 400)"/>
  <use href="#starburst" transform="rotate(202.5 400 400)"/>
  <use href="#starburst" transform="rotate(225 400 400)"/>
  <use href="#starburst" transform="rotate(247.5 400 400)"/>
  <use href="#starburst" transform="rotate(270 400 400)"/>
  <use href="#starburst" transform="rotate(292.5 400 400)"/>
  <use href="#starburst" transform="rotate(315 400 400)"/>
  <use href="#starburst" transform="rotate(337.5 400 400)"/>
</svg>